<mxfile host="app.diagrams.net" modified="2024-11-06T09:06:08.769Z" agent="Mozilla/5.0 (Windows NT 10.0; Win64; x64) AppleWebKit/537.36 (KHTML, like Gecko) Chrome/130.0.0.0 Safari/537.36" etag="RoUebBb-T7q1LmtPw_CU" version="24.2.5" type="device">
  <diagram id="C5RBs43oDa-KdzZeNtuy" name="Page-1">
    <mxGraphModel dx="2687" dy="864" grid="1" gridSize="10" guides="1" tooltips="1" connect="1" arrows="1" fold="1" page="1" pageScale="1" pageWidth="827" pageHeight="1169" math="0" shadow="0">
      <root>
        <mxCell id="WIyWlLk6GJQsqaUBKTNV-0" />
        <mxCell id="WIyWlLk6GJQsqaUBKTNV-1" parent="WIyWlLk6GJQsqaUBKTNV-0" />
        <mxCell id="QbUi6r4gvlhrKLps8nTS-23" style="edgeStyle=orthogonalEdgeStyle;rounded=0;orthogonalLoop=1;jettySize=auto;html=1;exitX=0.5;exitY=1;exitDx=0;exitDy=0;entryX=0.5;entryY=0;entryDx=0;entryDy=0;" edge="1" parent="WIyWlLk6GJQsqaUBKTNV-1" source="QbUi6r4gvlhrKLps8nTS-2" target="QbUi6r4gvlhrKLps8nTS-4">
          <mxGeometry relative="1" as="geometry" />
        </mxCell>
        <mxCell id="QbUi6r4gvlhrKLps8nTS-2" value="Start" style="ellipse;whiteSpace=wrap;html=1;" vertex="1" parent="WIyWlLk6GJQsqaUBKTNV-1">
          <mxGeometry x="303" y="150" width="110" height="40" as="geometry" />
        </mxCell>
        <mxCell id="QbUi6r4gvlhrKLps8nTS-26" style="edgeStyle=orthogonalEdgeStyle;rounded=0;orthogonalLoop=1;jettySize=auto;html=1;exitX=0.5;exitY=1;exitDx=0;exitDy=0;" edge="1" parent="WIyWlLk6GJQsqaUBKTNV-1" source="QbUi6r4gvlhrKLps8nTS-3" target="QbUi6r4gvlhrKLps8nTS-7">
          <mxGeometry relative="1" as="geometry" />
        </mxCell>
        <mxCell id="QbUi6r4gvlhrKLps8nTS-3" value="Geo coordinates" style="shape=parallelogram;perimeter=parallelogramPerimeter;whiteSpace=wrap;html=1;fixedSize=1;" vertex="1" parent="WIyWlLk6GJQsqaUBKTNV-1">
          <mxGeometry x="150" y="330" width="140" height="40" as="geometry" />
        </mxCell>
        <mxCell id="QbUi6r4gvlhrKLps8nTS-24" style="edgeStyle=orthogonalEdgeStyle;rounded=0;orthogonalLoop=1;jettySize=auto;html=1;exitX=0.5;exitY=1;exitDx=0;exitDy=0;entryX=0.5;entryY=0;entryDx=0;entryDy=0;" edge="1" parent="WIyWlLk6GJQsqaUBKTNV-1" source="QbUi6r4gvlhrKLps8nTS-4" target="QbUi6r4gvlhrKLps8nTS-3">
          <mxGeometry relative="1" as="geometry">
            <Array as="points">
              <mxPoint x="340" y="270" />
              <mxPoint x="340" y="300" />
              <mxPoint x="220" y="300" />
            </Array>
          </mxGeometry>
        </mxCell>
        <mxCell id="QbUi6r4gvlhrKLps8nTS-25" style="edgeStyle=orthogonalEdgeStyle;rounded=0;orthogonalLoop=1;jettySize=auto;html=1;exitX=0.75;exitY=1;exitDx=0;exitDy=0;entryX=0.5;entryY=0;entryDx=0;entryDy=0;" edge="1" parent="WIyWlLk6GJQsqaUBKTNV-1" source="QbUi6r4gvlhrKLps8nTS-4" target="QbUi6r4gvlhrKLps8nTS-5">
          <mxGeometry relative="1" as="geometry" />
        </mxCell>
        <mxCell id="QbUi6r4gvlhrKLps8nTS-4" value="Drone Survelliance" style="rounded=0;whiteSpace=wrap;html=1;" vertex="1" parent="WIyWlLk6GJQsqaUBKTNV-1">
          <mxGeometry x="303" y="230" width="110" height="40" as="geometry" />
        </mxCell>
        <mxCell id="QbUi6r4gvlhrKLps8nTS-27" style="edgeStyle=orthogonalEdgeStyle;rounded=0;orthogonalLoop=1;jettySize=auto;html=1;entryX=0.5;entryY=0;entryDx=0;entryDy=0;" edge="1" parent="WIyWlLk6GJQsqaUBKTNV-1" source="QbUi6r4gvlhrKLps8nTS-5" target="QbUi6r4gvlhrKLps8nTS-8">
          <mxGeometry relative="1" as="geometry" />
        </mxCell>
        <mxCell id="QbUi6r4gvlhrKLps8nTS-5" value="Video Streaming" style="shape=parallelogram;perimeter=parallelogramPerimeter;whiteSpace=wrap;html=1;fixedSize=1;" vertex="1" parent="WIyWlLk6GJQsqaUBKTNV-1">
          <mxGeometry x="420" y="330" width="140" height="40" as="geometry" />
        </mxCell>
        <mxCell id="QbUi6r4gvlhrKLps8nTS-33" style="edgeStyle=orthogonalEdgeStyle;rounded=0;orthogonalLoop=1;jettySize=auto;html=1;exitX=0;exitY=0.75;exitDx=0;exitDy=0;entryX=1;entryY=0.75;entryDx=0;entryDy=0;" edge="1" parent="WIyWlLk6GJQsqaUBKTNV-1" source="QbUi6r4gvlhrKLps8nTS-7" target="QbUi6r4gvlhrKLps8nTS-28">
          <mxGeometry relative="1" as="geometry" />
        </mxCell>
        <mxCell id="QbUi6r4gvlhrKLps8nTS-7" value="Server&lt;div&gt;&lt;br&gt;&lt;/div&gt;&lt;div&gt;Stores geo locations&lt;/div&gt;" style="whiteSpace=wrap;html=1;aspect=fixed;" vertex="1" parent="WIyWlLk6GJQsqaUBKTNV-1">
          <mxGeometry x="175" y="450" width="90" height="90" as="geometry" />
        </mxCell>
        <mxCell id="QbUi6r4gvlhrKLps8nTS-8" value="Human/Animal Detection module" style="whiteSpace=wrap;html=1;aspect=fixed;" vertex="1" parent="WIyWlLk6GJQsqaUBKTNV-1">
          <mxGeometry x="445" y="450" width="90" height="90" as="geometry" />
        </mxCell>
        <mxCell id="QbUi6r4gvlhrKLps8nTS-10" style="edgeStyle=orthogonalEdgeStyle;rounded=0;orthogonalLoop=1;jettySize=auto;html=1;exitX=0;exitY=0.5;exitDx=0;exitDy=0;entryX=0.5;entryY=1;entryDx=0;entryDy=0;" edge="1" parent="WIyWlLk6GJQsqaUBKTNV-1" source="QbUi6r4gvlhrKLps8nTS-9" target="QbUi6r4gvlhrKLps8nTS-7">
          <mxGeometry relative="1" as="geometry" />
        </mxCell>
        <mxCell id="QbUi6r4gvlhrKLps8nTS-9" value="If detected?" style="rhombus;whiteSpace=wrap;html=1;" vertex="1" parent="WIyWlLk6GJQsqaUBKTNV-1">
          <mxGeometry x="445" y="600" width="100" height="70" as="geometry" />
        </mxCell>
        <mxCell id="QbUi6r4gvlhrKLps8nTS-13" value="Request" style="text;html=1;align=center;verticalAlign=middle;whiteSpace=wrap;rounded=0;" vertex="1" parent="WIyWlLk6GJQsqaUBKTNV-1">
          <mxGeometry x="220" y="580" width="60" height="30" as="geometry" />
        </mxCell>
        <mxCell id="QbUi6r4gvlhrKLps8nTS-15" value="Yes" style="text;html=1;align=center;verticalAlign=middle;whiteSpace=wrap;rounded=0;" vertex="1" parent="WIyWlLk6GJQsqaUBKTNV-1">
          <mxGeometry x="383" y="610" width="60" height="30" as="geometry" />
        </mxCell>
        <mxCell id="QbUi6r4gvlhrKLps8nTS-21" style="edgeStyle=orthogonalEdgeStyle;rounded=0;orthogonalLoop=1;jettySize=auto;html=1;entryX=1;entryY=0.378;entryDx=0;entryDy=0;entryPerimeter=0;" edge="1" parent="WIyWlLk6GJQsqaUBKTNV-1" source="QbUi6r4gvlhrKLps8nTS-9" target="QbUi6r4gvlhrKLps8nTS-8">
          <mxGeometry relative="1" as="geometry">
            <Array as="points">
              <mxPoint x="600" y="635" />
              <mxPoint x="600" y="484" />
            </Array>
          </mxGeometry>
        </mxCell>
        <mxCell id="QbUi6r4gvlhrKLps8nTS-22" value="No" style="text;html=1;align=center;verticalAlign=middle;whiteSpace=wrap;rounded=0;" vertex="1" parent="WIyWlLk6GJQsqaUBKTNV-1">
          <mxGeometry x="540" y="610" width="60" height="30" as="geometry" />
        </mxCell>
        <mxCell id="QbUi6r4gvlhrKLps8nTS-31" style="edgeStyle=orthogonalEdgeStyle;rounded=0;orthogonalLoop=1;jettySize=auto;html=1;exitX=1;exitY=0.25;exitDx=0;exitDy=0;entryX=0;entryY=0.25;entryDx=0;entryDy=0;" edge="1" parent="WIyWlLk6GJQsqaUBKTNV-1" source="QbUi6r4gvlhrKLps8nTS-28" target="QbUi6r4gvlhrKLps8nTS-7">
          <mxGeometry relative="1" as="geometry" />
        </mxCell>
        <mxCell id="QbUi6r4gvlhrKLps8nTS-37" value="" style="edgeStyle=orthogonalEdgeStyle;rounded=0;orthogonalLoop=1;jettySize=auto;html=1;" edge="1" parent="WIyWlLk6GJQsqaUBKTNV-1" source="QbUi6r4gvlhrKLps8nTS-28" target="QbUi6r4gvlhrKLps8nTS-35">
          <mxGeometry relative="1" as="geometry" />
        </mxCell>
        <mxCell id="QbUi6r4gvlhrKLps8nTS-28" value="Rescue Agency App" style="whiteSpace=wrap;html=1;aspect=fixed;" vertex="1" parent="WIyWlLk6GJQsqaUBKTNV-1">
          <mxGeometry x="-50" y="450" width="90" height="90" as="geometry" />
        </mxCell>
        <mxCell id="QbUi6r4gvlhrKLps8nTS-32" value="Request" style="text;html=1;align=center;verticalAlign=middle;whiteSpace=wrap;rounded=0;" vertex="1" parent="WIyWlLk6GJQsqaUBKTNV-1">
          <mxGeometry x="80" y="440" width="60" height="30" as="geometry" />
        </mxCell>
        <mxCell id="QbUi6r4gvlhrKLps8nTS-34" value="Response" style="text;html=1;align=center;verticalAlign=middle;whiteSpace=wrap;rounded=0;" vertex="1" parent="WIyWlLk6GJQsqaUBKTNV-1">
          <mxGeometry x="80" y="520" width="60" height="30" as="geometry" />
        </mxCell>
        <mxCell id="QbUi6r4gvlhrKLps8nTS-38" value="" style="edgeStyle=orthogonalEdgeStyle;rounded=0;orthogonalLoop=1;jettySize=auto;html=1;" edge="1" parent="WIyWlLk6GJQsqaUBKTNV-1" source="QbUi6r4gvlhrKLps8nTS-35" target="QbUi6r4gvlhrKLps8nTS-36">
          <mxGeometry relative="1" as="geometry" />
        </mxCell>
        <mxCell id="QbUi6r4gvlhrKLps8nTS-35" value="Map plotting and displaying shortest path" style="rounded=0;whiteSpace=wrap;html=1;" vertex="1" parent="WIyWlLk6GJQsqaUBKTNV-1">
          <mxGeometry x="-82.5" y="620" width="155" height="60" as="geometry" />
        </mxCell>
        <mxCell id="QbUi6r4gvlhrKLps8nTS-41" value="" style="edgeStyle=orthogonalEdgeStyle;rounded=0;orthogonalLoop=1;jettySize=auto;html=1;" edge="1" parent="WIyWlLk6GJQsqaUBKTNV-1" source="QbUi6r4gvlhrKLps8nTS-36" target="QbUi6r4gvlhrKLps8nTS-40">
          <mxGeometry relative="1" as="geometry" />
        </mxCell>
        <mxCell id="QbUi6r4gvlhrKLps8nTS-36" value="Map with shortest path" style="shape=parallelogram;perimeter=parallelogramPerimeter;whiteSpace=wrap;html=1;fixedSize=1;" vertex="1" parent="WIyWlLk6GJQsqaUBKTNV-1">
          <mxGeometry x="-92.5" y="760" width="175" height="50" as="geometry" />
        </mxCell>
        <mxCell id="QbUi6r4gvlhrKLps8nTS-40" value="Stop" style="ellipse;whiteSpace=wrap;html=1;" vertex="1" parent="WIyWlLk6GJQsqaUBKTNV-1">
          <mxGeometry x="-60" y="870" width="110" height="40" as="geometry" />
        </mxCell>
      </root>
    </mxGraphModel>
  </diagram>
</mxfile>
